<svg width="250" height="266" viewBox="0 0 250 266" fill="none" xmlns="http://www.w3.org/2000/svg">
<path d="M125.67 265.066L99.4041 219.571L151.937 219.571L125.67 265.066Z" fill="#2FC18C"/>
<g filter="url(#filter0_di_9_298)">
<ellipse cx="125" cy="121.632" rx="115" ry="115.632" fill="#3C1B7A"/>
<path d="M125 240.264C190.185 240.264 243 187.135 243 121.632C243 56.1288 190.185 3 125 3C59.8149 3 7 56.1288 7 121.632C7 187.135 59.8149 240.264 125 240.264Z" stroke="#2FC18C" stroke-width="6"/>
</g>
<path d="M118.374 100.696L133.738 100.766L133.67 115.666L118.307 115.596L118.374 100.696ZM99.7253 63.4899C100.182 53.696 103.634 46.7686 110.08 42.7078C114.148 40.114 119.137 38.8306 125.049 38.8576C132.817 38.8929 139.253 40.7783 144.358 44.5138C149.496 48.2493 152.049 53.7604 152.016 61.0471C151.996 65.5153 150.861 69.2739 148.613 72.3227C147.299 74.1728 144.779 76.533 141.054 79.4033L137.38 82.2222C135.38 83.7598 134.048 85.5583 133.386 87.6176C132.967 88.9218 132.735 90.9487 132.688 93.6982L118.767 93.6348C119 87.827 119.568 83.8253 120.472 81.6296C121.376 79.3995 123.69 76.8494 127.416 73.9791L131.193 71.0576C132.434 70.1352 133.436 69.1258 134.197 68.0293C135.58 66.1452 136.277 64.0689 136.287 61.8004C136.299 59.1882 135.537 56.813 134 54.675C132.497 52.5027 129.718 51.4074 125.662 51.3889C121.675 51.3707 118.834 52.6811 117.138 55.32C115.476 57.959 114.638 60.705 114.625 63.5578L99.7253 63.4899Z" fill="#2FC18C"/>
<path d="M161.096 107.079L170.718 112.692L165.282 122.009L155.661 116.396L161.096 107.079ZM162.854 76.9922C166.686 71.0177 171.361 67.9258 176.878 67.7166C180.371 67.5651 183.969 68.5693 187.671 70.7293C192.535 73.5674 195.894 77.0826 197.747 81.2749C199.621 85.4798 199.23 89.8603 196.571 94.4166C194.941 97.2105 192.868 99.1558 190.353 100.252C188.858 100.936 186.422 101.502 183.044 101.951L179.717 102.387C177.904 102.625 176.417 103.27 175.256 104.321C174.521 104.987 173.641 106.173 172.617 107.88L163.899 102.794C166.148 99.2374 167.953 96.9346 169.315 95.8856C170.69 94.8151 173.066 94.0554 176.444 93.6063L179.873 93.1439C180.986 93.0157 181.981 92.7458 182.855 92.3344C184.406 91.6547 185.595 90.6056 186.423 89.1871C187.376 87.5537 187.757 85.7882 187.566 83.8906C187.408 81.9841 186.06 80.2899 183.52 78.808C181.023 77.3513 178.765 77.1427 176.744 78.1822C174.746 79.2343 173.226 80.6522 172.185 82.4361L162.854 76.9922Z" fill="#EA5D5D"/>
<path d="M77.3708 112.898L88.1435 110.064L90.8877 120.496L80.115 123.33L77.3708 112.898ZM57.3392 90.3805C55.8243 83.4462 56.9435 77.9545 60.6969 73.9053C63.0596 71.3283 66.3135 69.4945 70.4587 68.404C75.9053 66.9711 80.7659 67.0818 85.0405 68.736C89.3392 70.3838 92.1595 73.7585 93.5016 78.86C94.3245 81.9883 94.2344 84.8294 93.2313 87.3832C92.6574 88.9235 91.3349 91.0468 89.2638 93.7529L87.2194 96.4134C86.1065 97.864 85.511 99.3714 85.4329 100.936C85.3843 101.926 85.6011 103.387 86.0834 105.319L76.3229 107.886C75.3977 103.782 75.0458 100.877 75.2673 99.1718C75.4824 97.4428 76.6255 95.2253 78.6965 92.5192L80.7942 89.7674C81.4909 88.8895 82.0031 87.9957 82.3307 87.0862C82.9465 85.5091 83.0456 83.9264 82.6278 82.3382C82.1466 80.5094 81.1676 78.9916 79.6906 77.785C78.2314 76.5479 76.0799 76.3035 73.2361 77.0516C70.4405 77.7871 68.696 79.2366 68.0025 81.4002C67.3331 83.5574 67.2612 85.6347 67.7866 87.632L57.3392 90.3805Z" fill="#F9BA18"/>
<path d="M62.5948 143.195H50.4297L51.5434 140.426V181.033H46.6888V140.426L48.0595 143.195H35.6659V138.912H62.5948V143.195ZM73.7207 181.033V138.912H88.3417C92.2063 138.912 95.1476 139.826 97.1656 141.653C99.1836 143.481 100.193 146.27 100.193 150.021C100.193 152.267 99.7643 154.18 98.9076 155.76C98.0699 157.321 97.0514 158.53 95.852 159.387C94.6717 160.244 93.577 160.729 92.568 160.843C93.5961 160.92 94.6051 161.205 95.595 161.7C96.604 162.176 97.4417 162.919 98.108 163.928C98.7743 164.937 99.1075 166.288 99.1075 167.983C99.1075 169.544 99.1075 171.143 99.1075 172.78C99.1075 174.398 99.1075 175.997 99.1075 177.578C99.1075 178.396 99.1741 179.129 99.3074 179.776C99.4406 180.405 99.5929 180.824 99.7643 181.033H94.8526C94.7193 180.785 94.586 180.357 94.4528 179.748C94.3195 179.139 94.2529 178.415 94.2529 177.578C94.2529 176.112 94.2529 174.617 94.2529 173.094C94.2529 171.571 94.2529 170.067 94.2529 168.582C94.2529 166.717 93.6627 165.327 92.4824 164.413C91.302 163.499 89.6362 163.042 87.485 163.042H77.1189L78.4896 161.186V181.033H73.7207ZM78.4896 160.786L77.1189 158.759H87.5421C88.9509 158.759 90.2264 158.416 91.3686 157.731C92.5299 157.026 93.4533 156.055 94.1386 154.818C94.843 153.562 95.1952 152.096 95.1952 150.42C95.1952 147.812 94.5099 145.956 93.1392 144.852C91.7684 143.748 89.7885 143.195 87.1994 143.195H77.0047L78.4896 141.082V160.786ZM112.742 181.033V138.912H117.539V181.033H112.742ZM139.765 181.261L128.314 138.912H133.654L143.478 177.435H143.135L152.844 138.912H158.213L146.876 181.261H139.765ZM168.967 181.033V138.912H173.765V181.033H168.967ZM184.651 181.033L196.245 138.798H203.841L215.349 181.033H210.323L200.014 141.968H200.071L189.677 181.033H184.651ZM190.648 169.867V165.584H209.438V169.867H190.648Z" fill="white"/>
<defs>
<filter id="filter0_di_9_298" x="0" y="0" width="250" height="251.264" filterUnits="userSpaceOnUse" color-interpolation-filters="sRGB">
<feFlood flood-opacity="0" result="BackgroundImageFix"/>
<feColorMatrix in="SourceAlpha" type="matrix" values="0 0 0 0 0 0 0 0 0 0 0 0 0 0 0 0 0 0 127 0" result="hardAlpha"/>
<feOffset dy="4"/>
<feGaussianBlur stdDeviation="2"/>
<feComposite in2="hardAlpha" operator="out"/>
<feColorMatrix type="matrix" values="0 0 0 0 0 0 0 0 0 0 0 0 0 0 0 0 0 0 0.25 0"/>
<feBlend mode="normal" in2="BackgroundImageFix" result="effect1_dropShadow_9_298"/>
<feBlend mode="normal" in="SourceGraphic" in2="effect1_dropShadow_9_298" result="shape"/>
<feColorMatrix in="SourceAlpha" type="matrix" values="0 0 0 0 0 0 0 0 0 0 0 0 0 0 0 0 0 0 127 0" result="hardAlpha"/>
<feOffset dy="4"/>
<feGaussianBlur stdDeviation="17.5"/>
<feComposite in2="hardAlpha" operator="arithmetic" k2="-1" k3="1"/>
<feColorMatrix type="matrix" values="0 0 0 0 0.121493 0 0 0 0 0.0553125 0 0 0 0 0.245833 0 0 0 1 0"/>
<feBlend mode="normal" in2="shape" result="effect2_innerShadow_9_298"/>
</filter>
</defs>
</svg>
